<mxfile host="app.diagrams.net" modified="2022-08-28T12:28:57.003Z" agent="5.0 (Windows NT 10.0; Win64; x64) AppleWebKit/537.36 (KHTML, like Gecko) Chrome/102.0.5005.167 YaBrowser/22.7.3.822 Yowser/2.5 Safari/537.36" etag="386_YFBSTXFTEejnx7Xv" version="20.2.7" type="github">
  <diagram id="C5RBs43oDa-KdzZeNtuy" name="Page-1">
    <mxGraphModel dx="3027" dy="2393" grid="1" gridSize="10" guides="1" tooltips="1" connect="1" arrows="1" fold="1" page="1" pageScale="1" pageWidth="827" pageHeight="1169" math="0" shadow="0">
      <root>
        <mxCell id="WIyWlLk6GJQsqaUBKTNV-0" />
        <mxCell id="WIyWlLk6GJQsqaUBKTNV-1" parent="WIyWlLk6GJQsqaUBKTNV-0" />
        <mxCell id="MDdszQrk_3YS0Ri55PwZ-14" style="edgeStyle=orthogonalEdgeStyle;rounded=0;orthogonalLoop=1;jettySize=auto;html=1;entryX=0.5;entryY=0;entryDx=0;entryDy=0;" edge="1" parent="WIyWlLk6GJQsqaUBKTNV-1" source="WIyWlLk6GJQsqaUBKTNV-3" target="MDdszQrk_3YS0Ri55PwZ-13">
          <mxGeometry relative="1" as="geometry" />
        </mxCell>
        <mxCell id="WIyWlLk6GJQsqaUBKTNV-3" value="Начало" style="rounded=1;whiteSpace=wrap;html=1;fontSize=12;glass=0;strokeWidth=1;shadow=0;" parent="WIyWlLk6GJQsqaUBKTNV-1" vertex="1">
          <mxGeometry x="160" y="-50" width="120" height="40" as="geometry" />
        </mxCell>
        <mxCell id="MDdszQrk_3YS0Ri55PwZ-11" style="edgeStyle=orthogonalEdgeStyle;rounded=0;orthogonalLoop=1;jettySize=auto;html=1;entryX=1;entryY=0.5;entryDx=0;entryDy=0;" edge="1" parent="WIyWlLk6GJQsqaUBKTNV-1" source="MDdszQrk_3YS0Ri55PwZ-7" target="MDdszQrk_3YS0Ri55PwZ-8">
          <mxGeometry relative="1" as="geometry" />
        </mxCell>
        <mxCell id="MDdszQrk_3YS0Ri55PwZ-25" style="edgeStyle=orthogonalEdgeStyle;rounded=0;orthogonalLoop=1;jettySize=auto;html=1;entryX=0.5;entryY=0;entryDx=0;entryDy=0;" edge="1" parent="WIyWlLk6GJQsqaUBKTNV-1" source="MDdszQrk_3YS0Ri55PwZ-7" target="MDdszQrk_3YS0Ri55PwZ-12">
          <mxGeometry relative="1" as="geometry" />
        </mxCell>
        <mxCell id="MDdszQrk_3YS0Ri55PwZ-7" value="Данные корректны?" style="rhombus;whiteSpace=wrap;html=1;rounded=0;glass=0;strokeWidth=1;shadow=0;" vertex="1" parent="WIyWlLk6GJQsqaUBKTNV-1">
          <mxGeometry x="180" y="110" width="80" height="80" as="geometry" />
        </mxCell>
        <mxCell id="MDdszQrk_3YS0Ri55PwZ-81" style="edgeStyle=orthogonalEdgeStyle;rounded=1;orthogonalLoop=1;jettySize=auto;html=1;entryX=0;entryY=0.5;entryDx=0;entryDy=0;" edge="1" parent="WIyWlLk6GJQsqaUBKTNV-1" source="MDdszQrk_3YS0Ri55PwZ-8" target="MDdszQrk_3YS0Ri55PwZ-55">
          <mxGeometry relative="1" as="geometry">
            <Array as="points">
              <mxPoint x="-140" y="150" />
              <mxPoint x="-140" y="1130" />
            </Array>
          </mxGeometry>
        </mxCell>
        <mxCell id="MDdszQrk_3YS0Ri55PwZ-8" value="Сообщение об ошибке" style="whiteSpace=wrap;html=1;rounded=0;glass=0;strokeWidth=1;shadow=0;" vertex="1" parent="WIyWlLk6GJQsqaUBKTNV-1">
          <mxGeometry y="120" width="120" height="60" as="geometry" />
        </mxCell>
        <mxCell id="MDdszQrk_3YS0Ri55PwZ-9" value="Нет" style="text;html=1;strokeColor=none;fillColor=none;align=center;verticalAlign=middle;whiteSpace=wrap;rounded=0;" vertex="1" parent="WIyWlLk6GJQsqaUBKTNV-1">
          <mxGeometry x="130" y="110" width="60" height="30" as="geometry" />
        </mxCell>
        <mxCell id="MDdszQrk_3YS0Ri55PwZ-10" value="Да" style="text;html=1;strokeColor=none;fillColor=none;align=center;verticalAlign=middle;whiteSpace=wrap;rounded=0;" vertex="1" parent="WIyWlLk6GJQsqaUBKTNV-1">
          <mxGeometry x="170" y="190" width="60" height="30" as="geometry" />
        </mxCell>
        <mxCell id="MDdszQrk_3YS0Ri55PwZ-24" style="edgeStyle=orthogonalEdgeStyle;rounded=0;orthogonalLoop=1;jettySize=auto;html=1;entryX=0.5;entryY=0;entryDx=0;entryDy=0;" edge="1" parent="WIyWlLk6GJQsqaUBKTNV-1" source="MDdszQrk_3YS0Ri55PwZ-12" target="MDdszQrk_3YS0Ri55PwZ-18">
          <mxGeometry relative="1" as="geometry" />
        </mxCell>
        <mxCell id="MDdszQrk_3YS0Ri55PwZ-12" value="Пользователь вводит данные в поле Откуда" style="whiteSpace=wrap;html=1;rounded=0;glass=0;strokeWidth=1;shadow=0;" vertex="1" parent="WIyWlLk6GJQsqaUBKTNV-1">
          <mxGeometry x="160" y="230" width="120" height="60" as="geometry" />
        </mxCell>
        <mxCell id="MDdszQrk_3YS0Ri55PwZ-23" style="edgeStyle=orthogonalEdgeStyle;rounded=0;orthogonalLoop=1;jettySize=auto;html=1;" edge="1" parent="WIyWlLk6GJQsqaUBKTNV-1" source="MDdszQrk_3YS0Ri55PwZ-13" target="MDdszQrk_3YS0Ri55PwZ-7">
          <mxGeometry relative="1" as="geometry" />
        </mxCell>
        <mxCell id="MDdszQrk_3YS0Ri55PwZ-13" value="Пользователь ввел время начала поездки" style="whiteSpace=wrap;html=1;rounded=0;glass=0;strokeWidth=1;shadow=0;" vertex="1" parent="WIyWlLk6GJQsqaUBKTNV-1">
          <mxGeometry x="160" y="20" width="120" height="60" as="geometry" />
        </mxCell>
        <mxCell id="MDdszQrk_3YS0Ri55PwZ-17" style="edgeStyle=orthogonalEdgeStyle;rounded=0;orthogonalLoop=1;jettySize=auto;html=1;entryX=1;entryY=0.5;entryDx=0;entryDy=0;" edge="1" parent="WIyWlLk6GJQsqaUBKTNV-1" source="MDdszQrk_3YS0Ri55PwZ-18" target="MDdszQrk_3YS0Ri55PwZ-19">
          <mxGeometry relative="1" as="geometry" />
        </mxCell>
        <mxCell id="MDdszQrk_3YS0Ri55PwZ-83" style="edgeStyle=orthogonalEdgeStyle;rounded=1;orthogonalLoop=1;jettySize=auto;html=1;entryX=0.5;entryY=0;entryDx=0;entryDy=0;" edge="1" parent="WIyWlLk6GJQsqaUBKTNV-1" source="MDdszQrk_3YS0Ri55PwZ-18" target="MDdszQrk_3YS0Ri55PwZ-22">
          <mxGeometry relative="1" as="geometry" />
        </mxCell>
        <mxCell id="MDdszQrk_3YS0Ri55PwZ-18" value="Данные корректны?" style="rhombus;whiteSpace=wrap;html=1;rounded=0;glass=0;strokeWidth=1;shadow=0;" vertex="1" parent="WIyWlLk6GJQsqaUBKTNV-1">
          <mxGeometry x="180" y="330" width="80" height="80" as="geometry" />
        </mxCell>
        <mxCell id="MDdszQrk_3YS0Ri55PwZ-66" style="edgeStyle=orthogonalEdgeStyle;rounded=1;orthogonalLoop=1;jettySize=auto;html=1;entryX=0;entryY=0.5;entryDx=0;entryDy=0;" edge="1" parent="WIyWlLk6GJQsqaUBKTNV-1" source="MDdszQrk_3YS0Ri55PwZ-19" target="MDdszQrk_3YS0Ri55PwZ-55">
          <mxGeometry relative="1" as="geometry">
            <Array as="points">
              <mxPoint x="-100" y="370" />
              <mxPoint x="-100" y="1130" />
            </Array>
          </mxGeometry>
        </mxCell>
        <mxCell id="MDdszQrk_3YS0Ri55PwZ-19" value="Сообщение об ошибке" style="whiteSpace=wrap;html=1;rounded=0;glass=0;strokeWidth=1;shadow=0;" vertex="1" parent="WIyWlLk6GJQsqaUBKTNV-1">
          <mxGeometry x="-30" y="340" width="120" height="60" as="geometry" />
        </mxCell>
        <mxCell id="MDdszQrk_3YS0Ri55PwZ-20" value="Нет" style="text;html=1;strokeColor=none;fillColor=none;align=center;verticalAlign=middle;whiteSpace=wrap;rounded=0;" vertex="1" parent="WIyWlLk6GJQsqaUBKTNV-1">
          <mxGeometry x="130" y="330" width="60" height="30" as="geometry" />
        </mxCell>
        <mxCell id="MDdszQrk_3YS0Ri55PwZ-21" value="Да" style="text;html=1;strokeColor=none;fillColor=none;align=center;verticalAlign=middle;whiteSpace=wrap;rounded=0;" vertex="1" parent="WIyWlLk6GJQsqaUBKTNV-1">
          <mxGeometry x="170" y="410" width="60" height="30" as="geometry" />
        </mxCell>
        <mxCell id="MDdszQrk_3YS0Ri55PwZ-35" style="edgeStyle=orthogonalEdgeStyle;rounded=0;orthogonalLoop=1;jettySize=auto;html=1;entryX=0.5;entryY=0;entryDx=0;entryDy=0;" edge="1" parent="WIyWlLk6GJQsqaUBKTNV-1" source="MDdszQrk_3YS0Ri55PwZ-22" target="MDdszQrk_3YS0Ri55PwZ-29">
          <mxGeometry relative="1" as="geometry" />
        </mxCell>
        <mxCell id="MDdszQrk_3YS0Ri55PwZ-22" value="Пользователь вводит данные в поле Куда" style="whiteSpace=wrap;html=1;rounded=0;glass=0;strokeWidth=1;shadow=0;" vertex="1" parent="WIyWlLk6GJQsqaUBKTNV-1">
          <mxGeometry x="160" y="450" width="120" height="60" as="geometry" />
        </mxCell>
        <mxCell id="MDdszQrk_3YS0Ri55PwZ-28" style="edgeStyle=orthogonalEdgeStyle;rounded=1;orthogonalLoop=1;jettySize=auto;html=1;entryX=1;entryY=0.5;entryDx=0;entryDy=0;" edge="1" parent="WIyWlLk6GJQsqaUBKTNV-1" source="MDdszQrk_3YS0Ri55PwZ-29" target="MDdszQrk_3YS0Ri55PwZ-30">
          <mxGeometry relative="1" as="geometry" />
        </mxCell>
        <mxCell id="MDdszQrk_3YS0Ri55PwZ-49" style="edgeStyle=orthogonalEdgeStyle;rounded=1;orthogonalLoop=1;jettySize=auto;html=1;entryX=0.5;entryY=0;entryDx=0;entryDy=0;" edge="1" parent="WIyWlLk6GJQsqaUBKTNV-1" source="MDdszQrk_3YS0Ri55PwZ-29" target="MDdszQrk_3YS0Ri55PwZ-41">
          <mxGeometry relative="1" as="geometry">
            <Array as="points">
              <mxPoint x="220" y="650" />
              <mxPoint x="670" y="650" />
            </Array>
          </mxGeometry>
        </mxCell>
        <mxCell id="MDdszQrk_3YS0Ri55PwZ-50" style="edgeStyle=orthogonalEdgeStyle;rounded=1;orthogonalLoop=1;jettySize=auto;html=1;entryX=0.5;entryY=0;entryDx=0;entryDy=0;" edge="1" parent="WIyWlLk6GJQsqaUBKTNV-1" source="MDdszQrk_3YS0Ri55PwZ-29" target="MDdszQrk_3YS0Ri55PwZ-40">
          <mxGeometry relative="1" as="geometry" />
        </mxCell>
        <mxCell id="MDdszQrk_3YS0Ri55PwZ-51" style="edgeStyle=orthogonalEdgeStyle;rounded=1;orthogonalLoop=1;jettySize=auto;html=1;entryX=0.5;entryY=0;entryDx=0;entryDy=0;" edge="1" parent="WIyWlLk6GJQsqaUBKTNV-1" source="MDdszQrk_3YS0Ri55PwZ-29" target="MDdszQrk_3YS0Ri55PwZ-36">
          <mxGeometry relative="1" as="geometry">
            <Array as="points">
              <mxPoint x="220" y="650" />
              <mxPoint x="30" y="650" />
            </Array>
          </mxGeometry>
        </mxCell>
        <mxCell id="MDdszQrk_3YS0Ri55PwZ-29" value="Данные корректны?" style="rhombus;whiteSpace=wrap;html=1;rounded=0;glass=0;strokeWidth=1;shadow=0;" vertex="1" parent="WIyWlLk6GJQsqaUBKTNV-1">
          <mxGeometry x="180" y="540" width="80" height="80" as="geometry" />
        </mxCell>
        <mxCell id="MDdszQrk_3YS0Ri55PwZ-65" style="edgeStyle=orthogonalEdgeStyle;rounded=1;orthogonalLoop=1;jettySize=auto;html=1;entryX=0;entryY=0.5;entryDx=0;entryDy=0;" edge="1" parent="WIyWlLk6GJQsqaUBKTNV-1" source="MDdszQrk_3YS0Ri55PwZ-30" target="MDdszQrk_3YS0Ri55PwZ-55">
          <mxGeometry relative="1" as="geometry">
            <Array as="points">
              <mxPoint x="-60" y="580" />
              <mxPoint x="-60" y="1130" />
            </Array>
          </mxGeometry>
        </mxCell>
        <mxCell id="MDdszQrk_3YS0Ri55PwZ-30" value="Сообщение об ошибке" style="whiteSpace=wrap;html=1;rounded=0;glass=0;strokeWidth=1;shadow=0;" vertex="1" parent="WIyWlLk6GJQsqaUBKTNV-1">
          <mxGeometry x="-30" y="550" width="120" height="60" as="geometry" />
        </mxCell>
        <mxCell id="MDdszQrk_3YS0Ri55PwZ-31" value="Нет" style="text;html=1;strokeColor=none;fillColor=none;align=center;verticalAlign=middle;whiteSpace=wrap;rounded=0;" vertex="1" parent="WIyWlLk6GJQsqaUBKTNV-1">
          <mxGeometry x="130" y="540" width="60" height="30" as="geometry" />
        </mxCell>
        <mxCell id="MDdszQrk_3YS0Ri55PwZ-54" style="edgeStyle=orthogonalEdgeStyle;rounded=1;orthogonalLoop=1;jettySize=auto;html=1;entryX=0.5;entryY=0;entryDx=0;entryDy=0;" edge="1" parent="WIyWlLk6GJQsqaUBKTNV-1" source="MDdszQrk_3YS0Ri55PwZ-36" target="MDdszQrk_3YS0Ri55PwZ-52">
          <mxGeometry relative="1" as="geometry" />
        </mxCell>
        <mxCell id="MDdszQrk_3YS0Ri55PwZ-36" value="Пользователь вводит режим маршрута &quot;Оптимальный&quot;" style="whiteSpace=wrap;html=1;rounded=0;glass=0;strokeWidth=1;shadow=0;" vertex="1" parent="WIyWlLk6GJQsqaUBKTNV-1">
          <mxGeometry x="-30" y="710" width="120" height="60" as="geometry" />
        </mxCell>
        <mxCell id="MDdszQrk_3YS0Ri55PwZ-53" style="edgeStyle=orthogonalEdgeStyle;rounded=1;orthogonalLoop=1;jettySize=auto;html=1;entryX=0.5;entryY=0;entryDx=0;entryDy=0;" edge="1" parent="WIyWlLk6GJQsqaUBKTNV-1" source="MDdszQrk_3YS0Ri55PwZ-40" target="MDdszQrk_3YS0Ri55PwZ-52">
          <mxGeometry relative="1" as="geometry">
            <Array as="points">
              <mxPoint x="220" y="810" />
              <mxPoint x="120" y="810" />
            </Array>
          </mxGeometry>
        </mxCell>
        <mxCell id="MDdszQrk_3YS0Ri55PwZ-40" value="Пользователь вводит режим маршрута &quot;Быстрый&quot;" style="whiteSpace=wrap;html=1;rounded=0;glass=0;strokeWidth=1;shadow=0;" vertex="1" parent="WIyWlLk6GJQsqaUBKTNV-1">
          <mxGeometry x="160" y="710" width="120" height="60" as="geometry" />
        </mxCell>
        <mxCell id="MDdszQrk_3YS0Ri55PwZ-67" style="edgeStyle=orthogonalEdgeStyle;rounded=1;orthogonalLoop=1;jettySize=auto;html=1;entryX=0.5;entryY=0;entryDx=0;entryDy=0;" edge="1" parent="WIyWlLk6GJQsqaUBKTNV-1" source="MDdszQrk_3YS0Ri55PwZ-41" target="MDdszQrk_3YS0Ri55PwZ-57">
          <mxGeometry relative="1" as="geometry" />
        </mxCell>
        <mxCell id="MDdszQrk_3YS0Ri55PwZ-68" style="edgeStyle=orthogonalEdgeStyle;rounded=1;orthogonalLoop=1;jettySize=auto;html=1;entryX=0.5;entryY=0;entryDx=0;entryDy=0;" edge="1" parent="WIyWlLk6GJQsqaUBKTNV-1" source="MDdszQrk_3YS0Ri55PwZ-41" target="MDdszQrk_3YS0Ri55PwZ-58">
          <mxGeometry relative="1" as="geometry" />
        </mxCell>
        <mxCell id="MDdszQrk_3YS0Ri55PwZ-69" style="edgeStyle=orthogonalEdgeStyle;rounded=1;orthogonalLoop=1;jettySize=auto;html=1;entryX=0.45;entryY=-0.04;entryDx=0;entryDy=0;entryPerimeter=0;" edge="1" parent="WIyWlLk6GJQsqaUBKTNV-1" source="MDdszQrk_3YS0Ri55PwZ-41" target="MDdszQrk_3YS0Ri55PwZ-59">
          <mxGeometry relative="1" as="geometry" />
        </mxCell>
        <mxCell id="MDdszQrk_3YS0Ri55PwZ-70" style="edgeStyle=orthogonalEdgeStyle;rounded=1;orthogonalLoop=1;jettySize=auto;html=1;entryX=0.5;entryY=0;entryDx=0;entryDy=0;" edge="1" parent="WIyWlLk6GJQsqaUBKTNV-1" source="MDdszQrk_3YS0Ri55PwZ-41" target="MDdszQrk_3YS0Ri55PwZ-60">
          <mxGeometry relative="1" as="geometry" />
        </mxCell>
        <mxCell id="MDdszQrk_3YS0Ri55PwZ-71" style="edgeStyle=orthogonalEdgeStyle;rounded=1;orthogonalLoop=1;jettySize=auto;html=1;entryX=0.5;entryY=0;entryDx=0;entryDy=0;" edge="1" parent="WIyWlLk6GJQsqaUBKTNV-1" source="MDdszQrk_3YS0Ri55PwZ-41" target="MDdszQrk_3YS0Ri55PwZ-61">
          <mxGeometry relative="1" as="geometry" />
        </mxCell>
        <mxCell id="MDdszQrk_3YS0Ri55PwZ-72" style="edgeStyle=orthogonalEdgeStyle;rounded=1;orthogonalLoop=1;jettySize=auto;html=1;entryX=0.5;entryY=0;entryDx=0;entryDy=0;" edge="1" parent="WIyWlLk6GJQsqaUBKTNV-1" source="MDdszQrk_3YS0Ri55PwZ-41" target="MDdszQrk_3YS0Ri55PwZ-62">
          <mxGeometry relative="1" as="geometry" />
        </mxCell>
        <mxCell id="MDdszQrk_3YS0Ri55PwZ-41" value="Пользователь вводит режим маршрута &quot;Свой&quot;" style="whiteSpace=wrap;html=1;rounded=0;glass=0;strokeWidth=1;shadow=0;" vertex="1" parent="WIyWlLk6GJQsqaUBKTNV-1">
          <mxGeometry x="610" y="710" width="120" height="60" as="geometry" />
        </mxCell>
        <mxCell id="MDdszQrk_3YS0Ri55PwZ-56" style="edgeStyle=orthogonalEdgeStyle;rounded=1;orthogonalLoop=1;jettySize=auto;html=1;entryX=0.5;entryY=0;entryDx=0;entryDy=0;" edge="1" parent="WIyWlLk6GJQsqaUBKTNV-1" source="MDdszQrk_3YS0Ri55PwZ-52" target="MDdszQrk_3YS0Ri55PwZ-55">
          <mxGeometry relative="1" as="geometry" />
        </mxCell>
        <mxCell id="MDdszQrk_3YS0Ri55PwZ-52" value="Система автоматически назначит вид транспорта, построится маршрут, отобразится время и стоимость поездки" style="whiteSpace=wrap;html=1;rounded=0;glass=0;strokeWidth=1;shadow=0;" vertex="1" parent="WIyWlLk6GJQsqaUBKTNV-1">
          <mxGeometry x="-10" y="850" width="260" height="60" as="geometry" />
        </mxCell>
        <mxCell id="MDdszQrk_3YS0Ri55PwZ-55" value="Конец" style="rounded=1;whiteSpace=wrap;html=1;fontSize=12;glass=0;strokeWidth=1;shadow=0;" vertex="1" parent="WIyWlLk6GJQsqaUBKTNV-1">
          <mxGeometry x="160" y="1110" width="120" height="40" as="geometry" />
        </mxCell>
        <mxCell id="MDdszQrk_3YS0Ri55PwZ-75" style="edgeStyle=orthogonalEdgeStyle;rounded=1;orthogonalLoop=1;jettySize=auto;html=1;" edge="1" parent="WIyWlLk6GJQsqaUBKTNV-1" source="MDdszQrk_3YS0Ri55PwZ-57" target="MDdszQrk_3YS0Ri55PwZ-73">
          <mxGeometry relative="1" as="geometry">
            <Array as="points">
              <mxPoint x="345" y="950" />
              <mxPoint x="670" y="950" />
            </Array>
          </mxGeometry>
        </mxCell>
        <mxCell id="MDdszQrk_3YS0Ri55PwZ-57" value="Пользователь выбирает вид транспорта &quot;Личный автомобиль&quot;" style="whiteSpace=wrap;html=1;rounded=0;glass=0;strokeWidth=1;shadow=0;" vertex="1" parent="WIyWlLk6GJQsqaUBKTNV-1">
          <mxGeometry x="285" y="850" width="120" height="60" as="geometry" />
        </mxCell>
        <mxCell id="MDdszQrk_3YS0Ri55PwZ-76" style="edgeStyle=orthogonalEdgeStyle;rounded=1;orthogonalLoop=1;jettySize=auto;html=1;entryX=0.5;entryY=0;entryDx=0;entryDy=0;" edge="1" parent="WIyWlLk6GJQsqaUBKTNV-1" source="MDdszQrk_3YS0Ri55PwZ-58" target="MDdszQrk_3YS0Ri55PwZ-73">
          <mxGeometry relative="1" as="geometry">
            <Array as="points">
              <mxPoint x="475" y="950" />
              <mxPoint x="670" y="950" />
            </Array>
          </mxGeometry>
        </mxCell>
        <mxCell id="MDdszQrk_3YS0Ri55PwZ-58" value="Пользователь выбирает вид транспорта &quot;Пешком&quot;" style="whiteSpace=wrap;html=1;rounded=0;glass=0;strokeWidth=1;shadow=0;" vertex="1" parent="WIyWlLk6GJQsqaUBKTNV-1">
          <mxGeometry x="415" y="850" width="120" height="60" as="geometry" />
        </mxCell>
        <mxCell id="MDdszQrk_3YS0Ri55PwZ-77" style="edgeStyle=orthogonalEdgeStyle;rounded=1;orthogonalLoop=1;jettySize=auto;html=1;entryX=0.5;entryY=0;entryDx=0;entryDy=0;" edge="1" parent="WIyWlLk6GJQsqaUBKTNV-1" source="MDdszQrk_3YS0Ri55PwZ-59" target="MDdszQrk_3YS0Ri55PwZ-73">
          <mxGeometry relative="1" as="geometry">
            <Array as="points">
              <mxPoint x="605" y="950" />
              <mxPoint x="670" y="950" />
            </Array>
          </mxGeometry>
        </mxCell>
        <mxCell id="MDdszQrk_3YS0Ri55PwZ-59" value="Пользователь выбирает вид транспорта &quot;Такси&quot;" style="whiteSpace=wrap;html=1;rounded=0;glass=0;strokeWidth=1;shadow=0;" vertex="1" parent="WIyWlLk6GJQsqaUBKTNV-1">
          <mxGeometry x="545" y="850" width="120" height="60" as="geometry" />
        </mxCell>
        <mxCell id="MDdszQrk_3YS0Ri55PwZ-78" style="edgeStyle=orthogonalEdgeStyle;rounded=1;orthogonalLoop=1;jettySize=auto;html=1;entryX=0.5;entryY=0;entryDx=0;entryDy=0;" edge="1" parent="WIyWlLk6GJQsqaUBKTNV-1" source="MDdszQrk_3YS0Ri55PwZ-60" target="MDdszQrk_3YS0Ri55PwZ-73">
          <mxGeometry relative="1" as="geometry">
            <Array as="points">
              <mxPoint x="735" y="950" />
              <mxPoint x="670" y="950" />
            </Array>
          </mxGeometry>
        </mxCell>
        <mxCell id="MDdszQrk_3YS0Ri55PwZ-60" value="Пользователь выбирает вид транспорта &quot;Шеринг велосипедов&quot;" style="whiteSpace=wrap;html=1;rounded=0;glass=0;strokeWidth=1;shadow=0;" vertex="1" parent="WIyWlLk6GJQsqaUBKTNV-1">
          <mxGeometry x="675" y="850" width="120" height="60" as="geometry" />
        </mxCell>
        <mxCell id="MDdszQrk_3YS0Ri55PwZ-79" style="edgeStyle=orthogonalEdgeStyle;rounded=1;orthogonalLoop=1;jettySize=auto;html=1;entryX=0.5;entryY=0;entryDx=0;entryDy=0;" edge="1" parent="WIyWlLk6GJQsqaUBKTNV-1" source="MDdszQrk_3YS0Ri55PwZ-61" target="MDdszQrk_3YS0Ri55PwZ-73">
          <mxGeometry relative="1" as="geometry">
            <Array as="points">
              <mxPoint x="865" y="950" />
              <mxPoint x="670" y="950" />
            </Array>
          </mxGeometry>
        </mxCell>
        <mxCell id="MDdszQrk_3YS0Ri55PwZ-61" value="Пользователь выбирает вид транспорта &quot;Шеринг самокатов&quot;" style="whiteSpace=wrap;html=1;rounded=0;glass=0;strokeWidth=1;shadow=0;" vertex="1" parent="WIyWlLk6GJQsqaUBKTNV-1">
          <mxGeometry x="805" y="850" width="120" height="60" as="geometry" />
        </mxCell>
        <mxCell id="MDdszQrk_3YS0Ri55PwZ-80" style="edgeStyle=orthogonalEdgeStyle;rounded=1;orthogonalLoop=1;jettySize=auto;html=1;entryX=0.5;entryY=0;entryDx=0;entryDy=0;" edge="1" parent="WIyWlLk6GJQsqaUBKTNV-1" source="MDdszQrk_3YS0Ri55PwZ-62" target="MDdszQrk_3YS0Ri55PwZ-73">
          <mxGeometry relative="1" as="geometry">
            <Array as="points">
              <mxPoint x="995" y="950" />
              <mxPoint x="670" y="950" />
            </Array>
          </mxGeometry>
        </mxCell>
        <mxCell id="MDdszQrk_3YS0Ri55PwZ-62" value="Пользователь выбирает вид транспорта &quot;Каршеринг&quot;" style="whiteSpace=wrap;html=1;rounded=0;glass=0;strokeWidth=1;shadow=0;" vertex="1" parent="WIyWlLk6GJQsqaUBKTNV-1">
          <mxGeometry x="935" y="850" width="120" height="60" as="geometry" />
        </mxCell>
        <mxCell id="MDdszQrk_3YS0Ri55PwZ-74" style="edgeStyle=orthogonalEdgeStyle;rounded=1;orthogonalLoop=1;jettySize=auto;html=1;entryX=0.5;entryY=0;entryDx=0;entryDy=0;" edge="1" parent="WIyWlLk6GJQsqaUBKTNV-1" source="MDdszQrk_3YS0Ri55PwZ-73" target="MDdszQrk_3YS0Ri55PwZ-55">
          <mxGeometry relative="1" as="geometry" />
        </mxCell>
        <mxCell id="MDdszQrk_3YS0Ri55PwZ-73" value="Построится маршрут, отобразится время и стоимость поездки" style="whiteSpace=wrap;html=1;rounded=0;glass=0;strokeWidth=1;shadow=0;" vertex="1" parent="WIyWlLk6GJQsqaUBKTNV-1">
          <mxGeometry x="540" y="980" width="260" height="60" as="geometry" />
        </mxCell>
        <mxCell id="MDdszQrk_3YS0Ri55PwZ-82" value="Да" style="text;html=1;strokeColor=none;fillColor=none;align=center;verticalAlign=middle;whiteSpace=wrap;rounded=0;" vertex="1" parent="WIyWlLk6GJQsqaUBKTNV-1">
          <mxGeometry x="170" y="610" width="60" height="30" as="geometry" />
        </mxCell>
      </root>
    </mxGraphModel>
  </diagram>
</mxfile>
